# xmcd
#
# Track frame offsets:
#	150
#	18132
#	40211
#	60698
#	79542
#	99543
#	117131
#	133364
#	152822
#	171540
#	192012
#	209121
#	238690
#
# Disc length: 4159 seconds
#
# Revision: 0
# Processed by: cddbd v1.5.2PL0 Copyright (c) Steve Scherf et al.
# Submitted via: EasyCDDAExtractor 11.1.0.1
#
DISCID=b3103d0d
DTITLE=sg WANNA BE - sg 워너비 - Wanna Be+ [Music 2.0 Special Edition] [CD1]
DYEAR=2007
DGENRE=R&B
TTITLE0=Timeless
TTITLE1=죽을 만큼 사랑했어요
TTITLE2=사랑하고 싶어
TTITLE3=금기
TTITLE4=어린사랑
TTITLE5=사랑하길 정말 잘했어요
TTITLE6=Don't Know Why
TTITLE7=믿을께요
TTITLE8=하지만
TTITLE9=그째 까지만
TTITLE10=요즘 넌
TTITLE11=우습지
TTITLE12=Music 2.0 Data Track
EXTD=
EXTT0=
EXTT1=
EXTT2=
EXTT3=
EXTT4=
EXTT5=
EXTT6=
EXTT7=
EXTT8=
EXTT9=
EXTT10=
EXTT11=
EXTT12=
PLAYORDER=
